<svg width="4" height="16" viewBox="0 0 4 16" fill="none" xmlns="http://www.w3.org/2000/svg">
<path d="M1.99997 2.66669C2.73636 2.66669 3.33332 2.06973 3.33332 1.33334C3.33332 0.596958 2.73636 0 1.99997 0C1.26359 0 0.666626 0.596958 0.666626 1.33334C0.666626 2.06973 1.26359 2.66669 1.99997 2.66669Z" fill="#858D9D"/>
<path d="M1.99997 9.33332C2.73636 9.33332 3.33332 8.73636 3.33332 7.99997C3.33332 7.26359 2.73636 6.66663 1.99997 6.66663C1.26359 6.66663 0.666626 7.26359 0.666626 7.99997C0.666626 8.73636 1.26359 9.33332 1.99997 9.33332Z" fill="#858D9D"/>
<path d="M1.99997 16C2.73636 16 3.33332 15.403 3.33332 14.6666C3.33332 13.9302 2.73636 13.3333 1.99997 13.3333C1.26359 13.3333 0.666626 13.9302 0.666626 14.6666C0.666626 15.403 1.26359 16 1.99997 16Z" fill="#858D9D"/>
</svg>
