<svg width="16" height="14" viewBox="0 0 16 14" fill="none" xmlns="http://www.w3.org/2000/svg">
<path d="M7.99989 9.6658C9.4721 9.6658 10.6656 8.47234 10.6656 7.00014C10.6656 5.52793 9.4721 4.33447 7.99989 4.33447C6.52769 4.33447 5.33423 5.52793 5.33423 7.00014C5.33423 8.47234 6.52769 9.6658 7.99989 9.6658Z" fill="#A3A9B6"/>
<path d="M15.5112 5.28013C14.4776 3.59676 12.1265 0.772461 7.99998 0.772461C3.87352 0.772461 1.52239 3.59676 0.488772 5.28013C-0.162924 6.33421 -0.162924 7.66609 0.488772 8.7202C1.52239 10.4036 3.87352 13.2279 7.99998 13.2279C12.1265 13.2279 14.4776 10.4036 15.5112 8.7202C16.1629 7.66609 16.1629 6.33421 15.5112 5.28013ZM7.99998 10.9987C5.79168 10.9987 4.00147 9.20846 4.00147 7.00015C4.00147 4.79184 5.79168 3.00163 7.99998 3.00163C10.2083 3.00163 11.9985 4.79184 11.9985 7.00015C11.9963 9.20755 10.2074 10.9964 7.99998 10.9987Z" fill="#A3A9B6"/>
</svg>
