<svg width="40" height="40" viewBox="0 0 40 40" fill="none" xmlns="http://www.w3.org/2000/svg">
<rect width="40" height="40" rx="8" fill="#FEECEE"/>
<g clip-path="url(#clip0_1055_1139)">
<path d="M18.0001 18.4C18.1062 18.4 18.2079 18.4361 18.2829 18.5004C18.358 18.5647 18.4001 18.652 18.4001 18.7429V22.8572C18.4001 22.9481 18.358 23.0353 18.2829 23.0996C18.2079 23.1639 18.1062 23.2 18.0001 23.2C17.894 23.2 17.7923 23.1639 17.7173 23.0996C17.6422 23.0353 17.6001 22.9481 17.6001 22.8572V18.7429C17.6001 18.652 17.6422 18.5647 17.7173 18.5004C17.7923 18.4361 17.894 18.4 18.0001 18.4ZM20.0001 18.4C20.1062 18.4 20.2079 18.4361 20.2829 18.5004C20.358 18.5647 20.4001 18.652 20.4001 18.7429V22.8572C20.4001 22.9481 20.358 23.0353 20.2829 23.0996C20.2079 23.1639 20.1062 23.2 20.0001 23.2C19.894 23.2 19.7923 23.1639 19.7173 23.0996C19.6422 23.0353 19.6001 22.9481 19.6001 22.8572V18.7429C19.6001 18.652 19.6422 18.5647 19.7173 18.5004C19.7923 18.4361 19.894 18.4 20.0001 18.4ZM22.4001 18.7429C22.4001 18.652 22.358 18.5647 22.2829 18.5004C22.2079 18.4361 22.1062 18.4 22.0001 18.4C21.894 18.4 21.7923 18.4361 21.7173 18.5004C21.6422 18.5647 21.6001 18.652 21.6001 18.7429V22.8572C21.6001 22.9481 21.6422 23.0353 21.7173 23.0996C21.7923 23.1639 21.894 23.2 22.0001 23.2C22.1062 23.2 22.2079 23.1639 22.2829 23.0996C22.358 23.0353 22.4001 22.9481 22.4001 22.8572V18.7429Z" fill="#EB3D4D"/>
<path fill-rule="evenodd" clip-rule="evenodd" d="M27.2001 15.04C27.2001 15.3088 27.0833 15.5665 26.8756 15.7565C26.6679 15.9466 26.3861 16.0533 26.0924 16.0533H25.5385V25.1733C25.5385 25.7108 25.3051 26.2263 24.8896 26.6064C24.4742 26.9865 23.9107 27.2 23.3231 27.2H16.677C16.0894 27.2 15.5259 26.9865 15.1105 26.6064C14.695 26.2263 14.4616 25.7108 14.4616 25.1733V16.0533H13.9077C13.614 16.0533 13.3322 15.9466 13.1245 15.7565C12.9168 15.5665 12.8 15.3088 12.8 15.04V14.0267C12.8 13.7579 12.9168 13.5002 13.1245 13.3101C13.3322 13.1201 13.614 13.0133 13.9077 13.0133H17.7847C17.7847 12.7446 17.9014 12.4868 18.1091 12.2968C18.3168 12.1068 18.5986 12 18.8924 12H21.1077C21.4015 12 21.6833 12.1068 21.891 12.2968C22.0987 12.4868 22.2154 12.7446 22.2154 13.0133H26.0924C26.3861 13.0133 26.6679 13.1201 26.8756 13.3101C27.0833 13.5002 27.2001 13.7579 27.2001 14.0267V15.04ZM15.7 16.0533L15.5693 16.1131V25.1733C15.5693 25.4421 15.686 25.6998 15.8937 25.8899C16.1014 26.0799 16.3832 26.1867 16.677 26.1867H23.3231C23.6169 26.1867 23.8987 26.0799 24.1064 25.8899C24.3141 25.6998 24.4308 25.4421 24.4308 25.1733V16.1131L24.3001 16.0533H15.7ZM13.9077 15.04V14.0267H26.0924V15.04H13.9077Z" fill="#EB3D4D"/>
</g>
<defs>
<clipPath id="clip0_1055_1139">
<rect width="16" height="16" fill="white" transform="translate(12 12)"/>
</clipPath>
</defs>
</svg>
